<?xml version="1.0" standalone="no"?>
<!DOCTYPE svg PUBLIC "-//W3C//DTD SVG 20010904//EN"
 "http://www.w3.org/TR/2001/REC-SVG-20010904/DTD/svg10.dtd">
<svg version="1.0" xmlns="http://www.w3.org/2000/svg"
 width="1280.000000pt" height="760.000000pt" viewBox="0 0 1280.000000 760.000000"
 preserveAspectRatio="xMidYMid meet">
<metadata>
Created by potrace 1.15, written by Peter Selinger 2001-2017
</metadata>
<g transform="translate(0.000000,760.000000) scale(0.100000,-0.100000)"
fill="#000000" stroke="none">
<path d="M6844 7210 c-70 -14 -234 -78 -369 -145 -152 -75 -310 -175 -441
-281 -116 -94 -503 -496 -628 -652 -168 -212 -368 -513 -639 -962 -123 -203
-152 -246 -394 -587 -236 -333 -311 -448 -440 -673 -55 -97 -172 -284 -260
-415 -332 -498 -434 -695 -503 -970 l-28 -110 -89 -6 c-101 -7 -189 -30 -251
-65 -24 -14 -68 -34 -99 -45 -30 -10 -98 -41 -151 -69 l-95 -50 -43 21 c-62
29 -151 28 -208 -4 -28 -16 -53 -22 -73 -20 -18 3 -50 -4 -77 -15 -25 -12 -46
-19 -46 -16 0 3 34 89 75 191 70 172 84 221 61 216 -5 -1 -51 -100 -102 -220
-51 -120 -93 -212 -94 -204 0 8 9 87 21 177 11 89 19 178 17 198 -6 71 -22 35
-40 -86 -21 -145 -50 -248 -77 -272 -20 -18 -23 -17 -113 27 -127 62 -290 161
-563 342 -126 84 -244 159 -262 168 -62 32 -204 67 -267 66 l-61 -2 55 -7 c64
-9 121 -23 205 -52 82 -28 73 -23 318 -182 474 -307 634 -414 641 -425 14 -21
-303 177 -524 328 -343 235 -354 241 -574 291 -78 18 -103 21 -118 11 -15 -9
-20 -9 -24 3 -3 8 -3 20 1 25 3 6 0 8 -9 5 -27 -10 -25 -33 3 -57 25 -21 27
-26 15 -42 -20 -27 -8 -35 54 -35 58 0 65 -3 258 -87 114 -50 306 -170 590
-369 l222 -156 12 -79 c13 -92 38 -170 75 -232 29 -51 117 -137 139 -137 8 0
45 -16 82 -36 66 -35 71 -36 139 -29 190 18 468 102 536 161 14 12 24 9 77
-26 34 -22 62 -42 62 -46 0 -3 20 -92 45 -198 25 -107 45 -202 45 -213 0 -25
-253 -273 -430 -424 -115 -98 -124 -108 -166 -191 -24 -49 -60 -106 -79 -127
-33 -36 -34 -40 -20 -55 9 -9 25 -16 35 -16 22 0 118 103 166 177 59 90 369
388 531 511 55 41 75 63 84 91 18 58 23 215 9 267 -7 24 -10 47 -7 50 11 12
133 -53 213 -114 45 -34 93 -66 108 -72 44 -16 126 -11 196 13 l65 22 33 -37
c19 -21 61 -51 94 -68 51 -25 73 -30 132 -30 39 0 255 -9 481 -21 l410 -22 80
-75 c102 -95 349 -293 442 -355 148 -98 306 -157 421 -157 53 0 62 3 67 21 8
23 -7 39 -37 39 -24 0 -240 77 -313 111 -49 23 -100 67 -280 244 l-220 215
172 0 c143 0 174 3 187 16 13 12 74 20 294 37 274 22 277 22 274 44 -3 18 4
24 40 33 24 7 140 43 259 80 118 38 231 72 250 77 22 6 34 15 34 27 0 17 38
35 510 246 66 30 121 55 123 56 2 1 -1 11 -7 23 -10 19 -2 25 109 81 107 55
349 209 408 259 13 12 22 31 22 49 0 26 7 34 54 60 29 17 93 67 141 112 76 70
106 90 219 145 162 78 364 156 651 251 1170 388 2446 617 3300 590 116 -3 242
-9 280 -12 120 -11 67 3 -85 23 -203 25 -800 25 -1040 0 -709 -76 -1344 -214
-2346 -512 -488 -146 -563 -167 -539 -148 11 8 209 132 440 277 1179 735 2805
1780 2791 1793 -17 18 -1379 -821 -3066 -1889 -250 -158 -438 -273 -416 -255
336 279 456 375 646 515 124 91 477 353 785 582 1062 789 1525 1117 2027 1436
224 142 261 169 163 114 -528 -293 -2333 -1551 -3675 -2563 -190 -143 -248
-181 -372 -243 -95 -47 -160 -74 -181 -74 -19 0 -117 -35 -227 -81 -107 -45
-200 -83 -206 -86 -6 -2 -14 5 -16 15 -5 19 -24 14 -280 -67 -198 -63 -284
-86 -310 -83 -25 3 -108 -19 -291 -77 -222 -70 -259 -79 -285 -70 -26 9 -55 2
-204 -45 -96 -31 -181 -56 -189 -56 -8 0 -22 9 -32 20 -15 18 -29 20 -122 20
-97 0 -105 1 -105 19 0 11 22 43 48 73 27 29 65 87 85 129 65 137 150 196 416
293 253 92 301 126 457 327 301 386 548 874 705 1389 17 58 49 138 71 177 83
154 141 319 228 658 62 241 104 389 135 470 14 38 25 96 29 160 11 141 37 292
105 601 71 325 93 471 95 629 1 110 -1 125 -26 177 -70 150 -255 239 -493 237
-55 -1 -118 -5 -141 -9z m136 -44 c0 -1 -33 -25 -72 -51 -125 -83 -255 -183
-503 -390 -399 -333 -436 -362 -454 -351 -5 3 -7 15 -4 26 7 25 81 110 97 110
6 0 43 32 81 71 225 227 513 436 755 546 99 45 100 45 100 39z m146 -4 c-3 -5
-43 -32 -90 -60 -47 -29 -86 -54 -86 -56 0 -9 79 21 120 46 115 67 200 71 200
9 0 -41 -81 -127 -174 -185 -82 -51 -102 -55 -139 -26 -38 30 -52 82 -34 120
15 29 12 28 -60 -23 -219 -152 -484 -390 -666 -596 -115 -130 -247 -301 -247
-319 0 -19 -22 -14 -62 13 -50 34 -63 59 -43 82 9 10 42 52 74 93 59 77 141
154 266 251 39 30 142 117 230 194 336 295 452 374 642 440 81 28 75 27 69 17z
m-396 -56 c0 -2 -62 -50 -137 -107 -76 -56 -195 -149 -266 -206 -168 -135
-161 -132 -181 -83 -21 53 -20 75 5 121 25 44 84 89 166 126 42 19 329 126
411 152 1 1 2 -1 2 -3z m654 -67 c48 -38 29 -125 -36 -169 -18 -12 -24 -19
-13 -14 63 23 132 8 155 -36 16 -31 -4 -59 -65 -86 -96 -44 -325 -83 -325 -55
0 16 102 102 158 133 51 29 69 47 35 34 -10 -4 -51 -11 -91 -16 -81 -11 -112
-2 -112 30 0 19 65 90 82 90 5 0 28 18 52 40 40 37 96 69 122 70 6 0 23 -9 38
-21z m-476 -145 c21 -15 22 -17 6 -42 -8 -15 -34 -40 -56 -57 -22 -16 -46 -45
-53 -62 -8 -18 -20 -33 -28 -33 -19 0 -75 61 -82 91 -18 71 146 150 213 103z
m196 -80 c22 -21 20 -56 -5 -115 -14 -31 -33 -56 -54 -69 l-32 -20 16 -45 16
-46 8 37 c9 46 43 94 66 94 26 0 40 -20 50 -74 8 -43 7 -48 -17 -66 -34 -27
-71 -35 -94 -21 -16 10 -18 8 -18 -13 0 -28 -48 -52 -97 -47 -44 4 -33 97 17
154 27 32 28 34 9 45 -20 13 -37 16 -26 6 8 -8 -27 -76 -48 -94 -37 -31 -73
32 -74 131 -1 67 16 97 46 81 11 -6 23 -18 27 -27 7 -19 26 -20 26 -1 0 24 42
68 84 87 50 23 80 24 100 3z m-1006 -138 c4 -67 -3 -76 -60 -76 -37 0 -38 1
-38 35 0 24 9 45 31 70 46 51 63 44 67 -29z m628 39 c28 -18 32 -61 10 -103
-8 -15 -44 -56 -79 -91 -74 -72 -67 -72 -151 7 -64 60 -65 70 -14 128 67 76
169 102 234 59z m657 -30 c-49 -12 -185 -29 -153 -19 27 8 164 32 185 32 11 0
-3 -6 -32 -13z m61 -55 c17 -17 -16 -37 -83 -50 -31 -7 -73 -18 -93 -25 -41
-14 -48 -11 -48 19 0 32 13 46 56 62 44 16 149 13 168 -6z m-1467 -12 c15 -18
22 -68 16 -100 -4 -23 -11 -28 -34 -28 -38 0 -77 19 -84 41 -7 22 18 74 42 88
24 14 49 13 60 -1z m847 -56 c2 -4 -2 -21 -9 -37 -10 -26 -35 -56 -140 -177
-21 -25 -39 -22 -80 13 -36 32 -44 49 -22 49 6 0 23 16 36 35 26 38 77 82 126
108 32 17 81 22 89 9z m593 -17 c47 -33 48 -129 2 -171 -11 -10 -46 -31 -77
-46 -45 -21 -52 -26 -32 -27 74 -3 59 -38 -35 -83 -46 -22 -52 -28 -28 -24 22
4 39 -1 57 -15 55 -43 21 -175 -69 -264 -40 -41 -132 -95 -160 -95 -16 0 -78
205 -70 230 4 12 19 26 33 33 15 6 36 19 47 29 11 9 45 31 75 48 55 31 52 32
-28 9 -44 -13 -92 -2 -92 21 0 25 120 84 210 104 17 3 26 12 27 28 1 13 7 47
14 76 11 43 11 57 1 73 -11 17 -11 24 -1 37 40 52 86 65 126 37z m-922 -20
c60 -59 1 -216 -113 -301 -42 -31 -52 -34 -99 -31 -145 10 -136 103 27 280 69
74 73 77 116 77 34 0 51 -6 69 -25z m-611 -27 c18 -25 21 -83 6 -93 -20 -13
-110 40 -110 66 0 18 40 49 64 49 14 0 32 -10 40 -22z m1386 -18 c33 -33 22
-76 -36 -147 -30 -36 -38 -41 -54 -33 -49 26 -86 120 -62 157 26 41 119 56
152 23z m-382 -33 c3 -34 -2 -44 -40 -82 -30 -30 -59 -48 -97 -59 -30 -9 -65
-23 -79 -32 -13 -8 -25 -14 -27 -12 -9 8 99 150 142 188 62 54 97 53 101 -3z
m-1080 -53 c17 -11 21 -21 16 -37 -23 -79 -57 -97 -93 -51 -23 30 -29 99 -8
108 17 7 58 -3 85 -20z m1279 1 c29 -20 36 -58 19 -100 -21 -51 -53 -60 -89
-26 -29 26 -57 71 -57 91 0 5 9 19 20 30 24 24 76 26 107 5z m-1167 -59 c0
-27 -9 -42 -45 -75 -53 -48 -80 -55 -65 -15 14 35 67 111 82 117 25 10 28 7
28 -27z m678 -16 c2 -13 -1 -41 -7 -62 -11 -34 -15 -38 -44 -38 -37 0 -77 24
-77 47 0 8 16 31 35 50 42 42 88 44 93 3z m355 -11 c23 -37 -49 -134 -108
-145 -41 -7 -108 21 -113 49 -12 66 186 151 221 96z m-1259 -20 c29 -34 30
-37 16 -73 -22 -60 -70 -12 -70 70 0 43 20 44 54 3z m-73 -68 c32 -32 39 -80
15 -100 -11 -9 -18 -6 -35 15 -11 14 -25 42 -30 62 -17 59 4 69 50 23z m857
-3 c20 -20 14 -62 -17 -109 -45 -70 -73 -92 -104 -80 -38 15 -67 47 -67 75 0
33 41 79 93 105 48 24 77 27 95 9z m242 -23 c34 -31 26 -73 -23 -119 -45 -43
-147 -92 -172 -82 -11 4 -15 22 -15 71 0 78 17 116 62 139 41 21 120 16 148
-9z m-908 -10 c-2 -11 -15 -37 -29 -59 -22 -34 -28 -38 -56 -32 -39 8 -41 10
-33 40 13 53 126 101 118 51z m-268 -31 c13 -97 8 -135 -26 -187 -35 -55 -46
-49 -29 18 6 24 11 65 11 92 0 53 17 123 29 123 5 0 11 -21 15 -46z m1484 27
c25 -15 9 -54 -34 -84 -41 -28 -42 -29 -68 -12 -50 33 -56 72 -13 93 27 13 97
15 115 3z m-797 -11 c44 -24 17 -91 -80 -195 -36 -39 -75 -84 -86 -99 l-21
-29 -49 38 c-28 20 -54 48 -59 62 -12 35 1 85 33 131 55 74 199 125 262 92z
m654 -74 c29 -21 12 -42 -66 -82 -69 -34 -73 -35 -86 -18 -24 33 -16 72 20 94
37 23 105 26 132 6z m-1175 -22 c0 -9 -10 -34 -22 -55 -16 -29 -32 -42 -66
-53 -73 -25 -84 -1 -24 55 68 66 112 86 112 53z m164 -40 c-2 -68 -59 -178
-135 -259 l-57 -60 -63 0 c-60 0 -63 -1 -47 -17 28 -28 40 -89 28 -145 -13
-60 -40 -104 -107 -178 -62 -66 -73 -66 -132 2 -43 49 -62 105 -43 132 25 35
77 150 62 136 -25 -23 -43 -19 -34 8 18 59 60 121 75 111 13 -8 11 -58 -3 -73
-7 -7 5 -1 26 13 21 14 49 26 62 26 20 0 24 5 24 28 0 40 48 109 130 186 106
99 170 147 194 144 18 -3 21 -9 20 -54z m440 -62 c-1 -29 -5 -56 -8 -59 -15
-15 -111 -14 -131 1 -19 14 -19 17 -5 43 22 40 78 75 115 71 29 -3 30 -4 29
-56z m661 28 c22 -23 29 -41 33 -85 7 -80 -17 -135 -69 -164 -22 -13 -42 -21
-45 -18 -3 2 0 37 7 76 8 52 8 80 0 103 -12 34 -15 101 -4 111 15 16 51 5 78
-23z m-1570 3 c16 -42 24 -127 14 -140 -16 -18 -46 -16 -58 5 -7 12 -9 3 -4
-34 5 -46 3 -53 -16 -64 -16 -8 -26 -8 -36 0 -11 9 -12 4 -5 -27 10 -41 1 -54
-31 -46 -33 9 -49 44 -49 104 0 67 19 93 43 59 14 -20 15 -19 22 27 13 87 36
103 54 40 8 -29 9 -29 10 -7 3 75 38 127 56 83z m1280 -4 c13 -20 -18 -70 -63
-105 -37 -28 -54 -34 -93 -34 -80 0 -78 42 4 94 79 50 139 68 152 45z m-195
-13 c0 -30 -115 -121 -177 -140 -36 -11 -30 33 10 71 58 56 167 101 167 69z
m310 -65 c73 -38 100 -122 61 -187 -24 -39 -107 -108 -121 -99 -5 3 -10 15
-10 25 0 10 -13 52 -30 93 -33 84 -38 132 -14 165 19 28 66 29 114 3z m-1210
-12 c0 -11 -22 -44 -50 -72 -49 -51 -50 -52 -77 -37 -53 30 -36 75 42 111 55
25 85 25 85 -2z m373 -49 c34 -40 41 -78 23 -131 l-15 -44 19 25 c11 14 24 39
30 57 8 22 30 45 72 73 95 63 117 49 74 -46 -74 -162 -284 -382 -395 -414 -17
-5 -31 -6 -31 -2 0 4 43 61 96 127 53 66 105 134 117 150 19 29 19 29 -19 -6
-51 -47 -126 -89 -159 -89 -35 0 -82 25 -96 51 -16 30 -4 63 36 98 19 17 35
34 35 38 1 4 16 30 34 56 62 91 132 113 179 57z m506 -4 c16 -19 -23 -64 -92
-107 -28 -18 -67 -46 -85 -63 -32 -30 -33 -30 -60 -14 -43 26 -39 45 21 103
75 73 188 115 216 81z m802 4 c61 -33 -33 -178 -146 -226 -49 -20 -188 -19
-209 2 -20 20 -20 22 4 61 24 39 81 78 138 93 23 6 58 20 78 32 28 17 96 45
112 48 2 0 12 -5 23 -10z m-673 -45 c97 -41 139 -136 93 -212 -24 -39 -126
-115 -149 -111 -12 2 -23 27 -37 85 -12 45 -29 91 -39 102 -28 31 2 117 48
137 39 17 40 17 84 -1z m-1367 -112 c5 -13 9 -42 9 -64 0 -38 -1 -39 -34 -39
-44 0 -64 8 -76 30 -14 26 7 78 38 94 32 17 51 11 63 -21z m1188 -53 c46 -32
75 -86 75 -141 1 -57 -20 -90 -88 -136 -39 -27 -51 -31 -72 -23 -42 17 -92 59
-124 108 -40 60 -38 99 7 127 18 11 35 28 39 38 3 10 20 27 37 38 38 24 84 20
126 -11z m829 -14 c52 -60 51 -120 -5 -209 -78 -124 -331 -301 -528 -368 -22
-8 -47 -23 -56 -33 -22 -27 -60 -15 -116 37 -32 29 -42 34 -31 17 57 -92 9
-195 -113 -241 -30 -11 -62 -29 -72 -40 -21 -22 -41 -17 -84 24 l-33 31 0 -36
c0 -29 -8 -43 -49 -81 -26 -25 -74 -60 -105 -77 -31 -18 -56 -33 -56 -35 0 -1
17 3 38 11 20 7 47 10 60 7 18 -4 22 -1 22 20 0 32 34 60 105 86 148 56 235
21 119 -47 -25 -15 -74 -46 -109 -69 l-64 -42 -27 22 c-16 12 -25 16 -20 9 12
-19 -23 -80 -68 -116 -22 -18 -79 -55 -125 -81 -65 -38 -87 -46 -100 -38 -14
9 -23 4 -48 -26 -33 -40 -127 -96 -143 -86 -19 12 -10 63 15 94 30 34 85 56
124 48 25 -5 28 -3 24 17 -3 12 2 39 11 60 l15 37 -39 -22 c-55 -31 -138 -106
-156 -140 -11 -23 -21 -29 -47 -29 -66 0 -73 34 -22 111 l36 54 -38 -42 c-41
-46 -63 -53 -83 -28 -15 18 -5 47 36 100 30 40 118 101 158 111 28 7 29 6 24
-25 l-5 -32 46 44 c25 24 117 106 204 181 l158 138 32 -24 c55 -42 58 -42 41
-2 -19 46 -15 85 11 99 11 6 45 36 76 67 72 72 117 82 188 46 l47 -25 -23 45
c-44 88 -21 152 55 152 38 0 184 60 347 143 80 40 233 140 285 185 19 17 40
31 46 32 7 0 25 -15 42 -34z m-1023 13 c11 -17 -43 -85 -126 -160 l-78 -70
-36 16 c-19 10 -35 23 -35 30 0 21 59 94 103 126 78 58 156 84 172 58z m675
-29 c0 -19 -27 -64 -54 -89 -22 -20 -32 -23 -71 -18 -39 6 -45 4 -45 -11 0
-19 -49 -70 -112 -116 -41 -31 -71 -29 -89 6 -27 51 24 102 131 130 36 9 61
17 57 17 -4 1 -3 10 2 20 23 42 181 95 181 61z m-1560 -20 c0 -11 -10 -40 -22
-65 -18 -36 -28 -46 -55 -51 -63 -12 -81 15 -43 63 49 62 120 94 120 53z
m-193 -5 c33 -23 37 -61 13 -111 l-22 -44 -34 26 c-18 14 -43 42 -55 61 -18
28 -20 39 -10 59 8 19 18 24 49 24 20 0 47 -7 59 -15z m624 -65 c46 -25 6 -96
-87 -156 -50 -32 -212 -104 -234 -104 -16 0 57 108 114 169 49 51 131 101 169
101 10 0 27 -5 38 -10z m-694 -80 c7 -14 13 -40 13 -58 l0 -34 33 28 c36 30
103 63 130 64 31 0 18 -31 -38 -86 -60 -58 -96 -69 -117 -35 -10 16 -20 18
-65 14 -43 -5 -54 -3 -59 11 -9 24 3 61 32 96 30 36 53 36 71 0z m1114 1 c21
-17 24 -28 24 -88 -1 -83 -25 -142 -86 -208 -68 -73 -101 -84 -167 -52 -104
50 -29 252 128 346 43 26 71 27 101 2z m-201 -50 c0 -14 -66 -69 -108 -90 -40
-20 -67 -16 -92 13 -11 15 -11 20 6 36 10 11 37 26 59 34 45 16 135 21 135 7z
m514 -19 c12 -19 -128 -202 -155 -202 -10 0 -29 4 -43 10 -61 23 -7 104 111
168 60 33 78 38 87 24z m-1167 -22 c17 -10 36 -28 42 -38 20 -37 23 -96 8
-140 l-15 -43 60 65 c86 94 142 104 211 38 l27 -26 0 50 c0 52 20 94 46 94 19
0 74 -87 74 -116 0 -25 -61 -69 -84 -61 -9 4 -27 -17 -53 -60 -21 -37 -72
-103 -113 -147 -84 -90 -42 -64 70 44 51 49 68 60 96 60 44 0 99 -23 113 -47
6 -10 11 -13 11 -6 0 6 -5 15 -10 18 -14 8 -70 107 -70 122 0 45 95 25 147
-31 61 -66 62 -137 2 -208 -44 -55 -59 -50 -60 20 l-1 57 -8 -50 c-9 -65 -35
-115 -105 -202 -57 -71 -142 -146 -203 -177 -18 -9 -40 -32 -49 -51 -9 -19
-19 -35 -23 -35 -3 0 -28 20 -56 45 -90 78 -106 147 -53 230 l31 48 -77 -68
c-129 -116 -239 -249 -260 -316 -12 -37 -28 -20 -22 23 6 45 108 262 156 331
15 23 52 85 81 137 29 52 62 111 73 130 16 27 17 32 4 22 -9 -8 -19 -22 -22
-33 -10 -30 -50 -23 -95 17 -61 55 -83 97 -75 142 14 86 93 182 149 182 12 0
35 -9 53 -20z m-318 -72 c14 -24 13 -28 -25 -71 -21 -26 -44 -46 -50 -47 -6 0
-26 10 -45 23 -25 17 -35 31 -37 56 -4 37 26 77 62 84 33 5 79 -17 95 -45z
m101 -43 c19 -23 4 -62 -46 -115 -42 -45 -107 -80 -121 -66 -3 3 11 40 31 82
47 95 105 137 136 99z m2047 -31 c18 -47 -71 -176 -151 -219 l-35 -19 31 -11
c102 -33 94 -243 -12 -339 -28 -25 -37 -40 -33 -57 6 -32 -45 -92 -118 -139
l-57 -37 47 5 c35 3 50 0 60 -12 38 -46 -59 -169 -157 -199 -77 -25 -129 -29
-145 -12 -13 12 -17 12 -33 -6 -9 -10 -40 -33 -68 -49 -28 -16 -46 -30 -41
-30 17 0 238 60 278 75 48 19 44 20 62 -15 31 -60 8 -128 -66 -194 -70 -64
-140 -91 -234 -91 -76 0 -83 2 -129 35 -27 19 -58 47 -68 61 -28 38 -11 64 65
100 34 15 57 28 51 29 -15 0 -64 46 -64 60 0 5 8 17 19 26 18 16 18 17 0 35
-29 29 -35 86 -12 117 31 44 100 74 156 69 43 -4 87 -28 87 -48 0 -24 -58 -71
-110 -90 -33 -12 -67 -30 -76 -40 -20 -22 -16 -23 22 -8 16 5 54 10 86 10 55
1 58 2 58 25 0 32 25 80 45 88 9 3 29 6 45 6 15 0 48 12 71 26 24 14 37 24 28
21 -95 -30 -141 -39 -151 -29 -33 33 68 155 139 167 52 9 96 27 84 34 -6 4 -3
32 10 76 30 109 41 196 31 243 -9 39 -8 42 20 60 l30 19 -54 6 c-30 3 -71 12
-91 21 -72 30 -39 73 103 135 77 35 91 41 174 85 56 30 94 33 103 10z m-2266
-42 c41 -37 43 -99 3 -172 -15 -27 -30 -50 -34 -50 -14 0 -70 160 -70 201 0
54 51 65 101 21z m1389 -13 c0 -20 -106 -122 -259 -247 -195 -160 -321 -247
-321 -222 0 5 92 106 206 223 184 190 211 214 262 234 62 24 112 29 112 12z
m-1107 -101 c68 -36 60 -123 -24 -249 -13 -20 -32 -51 -42 -69 l-18 -33 -23
22 -23 22 4 -23 c2 -13 -4 -54 -14 -93 l-18 -70 -50 2 c-49 3 -50 2 -28 -15
12 -9 27 -30 32 -45 22 -58 -44 -40 -125 35 -59 55 -60 81 -1 59 25 -10 25 -9
10 19 -13 27 -12 34 5 73 21 48 70 91 115 103 23 5 27 11 22 28 -3 11 -8 36
-12 54 -3 18 -8 31 -12 29 -37 -20 -84 -36 -92 -31 -5 3 -7 15 -3 27 10 33 70
112 100 132 25 16 26 16 31 -5 6 -21 6 -21 27 -1 41 38 99 51 139 29z m-360
-50 c9 -11 17 -35 17 -52 0 -43 -28 -136 -41 -136 -17 0 -98 59 -109 80 -25
47 -6 104 43 125 38 16 65 11 90 -17z m1913 -11 c6 -17 -10 -59 -31 -80 -20
-20 -74 -22 -99 -4 -24 18 -12 43 38 72 45 27 84 32 92 12z m-119 -112 c9 -24
-22 -51 -85 -75 -31 -12 -65 -26 -74 -31 -15 -8 -18 -5 -18 20 0 32 32 78 64
91 37 15 106 12 113 -5z m-1916 -15 c32 -18 52 -68 47 -122 -7 -66 -19 -76
-58 -48 -40 29 -90 97 -90 123 0 46 55 71 101 47z m2133 -15 c36 -36 28 -133
-20 -232 -29 -60 -42 -70 -192 -144 l-112 -55 -35 108 c-64 199 -54 218 151
288 152 52 185 58 208 35z m-1914 -43 c0 -10 -17 -43 -37 -72 -38 -53 -78 -78
-109 -66 -13 5 -13 9 0 33 21 41 114 123 138 123 5 0 8 -8 8 -18z m-272 -105
c22 -23 51 -132 38 -144 -4 -4 -40 26 -81 67 -81 81 -84 100 -16 100 26 0 44
-7 59 -23z m1738 -88 c62 -60 81 -138 49 -198 -15 -30 -103 -91 -131 -91 -9 0
-18 9 -21 20 -6 23 -23 17 -23 -9 0 -18 -51 -71 -86 -90 -27 -13 -37 -2 -59
60 -21 60 -40 86 -78 109 l-31 19 45 20 c83 38 168 17 201 -49 l18 -35 0 43
c0 24 -5 52 -11 63 -17 32 -13 127 6 156 15 22 22 24 53 20 21 -4 49 -20 68
-38z m-1074 -19 c45 -52 85 -117 76 -125 -3 -3 -22 0 -43 7 -49 17 -95 73
-102 127 -8 57 14 54 69 -9z m-791 1 c24 -16 64 -49 88 -74 38 -39 42 -48 31
-62 -16 -19 -46 -20 -53 -1 -3 8 -38 33 -77 56 -77 45 -87 58 -70 89 14 28 28
26 81 -8z m277 1 c4 -23 -30 -62 -53 -62 -22 0 -18 33 6 64 24 30 42 30 47 -2z
m419 -63 c38 -14 90 -66 114 -111 24 -47 17 -48 -72 -12 -67 27 -127 67 -136
90 -14 36 38 55 94 33z m-467 -42 c0 -24 -33 -47 -65 -47 -20 0 -19 13 6 44
26 33 59 35 59 3z m-305 -13 c36 -17 129 -109 122 -122 -44 -80 -92 -152 -100
-152 -24 0 -85 53 -107 93 -34 60 -35 151 -1 178 28 23 43 24 86 3z m490 -25
c46 -40 46 -59 -1 -59 -32 0 -35 -2 -28 -22 24 -71 -36 -221 -131 -325 -53
-59 -59 -63 -101 -63 -44 0 -84 25 -84 53 0 31 27 102 82 218 l60 127 45 13
c35 9 41 14 29 21 -21 12 -20 44 2 57 36 21 89 13 127 -20z m313 -58 c33 -17
63 -34 65 -38 8 -12 -185 2 -209 15 -27 14 -36 36 -21 52 19 19 98 5 165 -29z
m232 4 c16 -19 5 -34 -20 -28 -24 6 -34 19 -25 33 9 14 31 12 45 -5z m-800
-32 c0 -110 -196 -471 -285 -525 -37 -22 -113 -24 -121 -3 -9 22 28 89 107
195 39 52 100 139 136 193 68 103 132 177 151 177 7 0 12 -16 12 -37z m745 -8
c25 -21 28 -26 15 -35 -21 -14 -36 -12 -54 6 -19 18 -21 54 -3 54 6 0 26 -11
42 -25z m643 -12 c43 -32 42 -87 -2 -145 -36 -47 -122 -111 -140 -105 -6 2
-20 18 -31 36 -11 17 -35 50 -53 73 -58 72 -52 115 21 149 55 26 166 21 205
-8z m-888 -23 c25 -25 25 -34 -4 -96 -29 -63 -131 -172 -228 -246 -84 -63
-105 -73 -124 -57 -19 16 -17 56 5 122 48 140 146 282 199 290 77 12 132 7
152 -13z m195 -6 c29 -31 31 -47 10 -64 -19 -16 -34 -5 -51 37 -24 56 0 71 41
27z m156 -16 c2 -22 -2 -42 -13 -71 -10 -26 -15 -28 -50 -25 -37 3 -38 3 -38
-29 0 -22 -5 -33 -14 -33 -21 0 -29 35 -15 62 7 13 14 30 15 38 7 40 112 93
115 58z m789 -51 c0 -31 -48 -104 -96 -148 -126 -113 -271 -168 -330 -125 -18
14 -18 16 -2 43 9 15 70 65 135 111 190 133 293 175 293 119z m-1986 -1 c43
-18 76 -61 76 -100 0 -46 -66 -166 -92 -166 -4 0 -35 24 -67 54 -32 30 -69 57
-82 61 -13 4 -27 13 -31 19 -12 18 -9 81 5 99 33 44 126 60 191 33z m1253 -21
c-7 -16 -47 -40 -47 -27 0 17 44 65 48 53 2 -6 1 -18 -1 -26z m187 -7 c56 -29
73 -79 42 -124 -8 -11 -109 -84 -225 -162 -166 -113 -217 -152 -247 -193 l-38
-52 -46 50 c-101 110 -107 207 -17 276 18 14 106 62 195 106 89 44 178 91 198
104 30 21 40 23 76 15 22 -5 50 -14 62 -20z m-394 -43 c0 -30 -4 -55 -10 -55
-11 0 -14 93 -3 103 12 12 13 8 13 -48z m-40 38 c0 -4 -48 -57 -107 -117 -60
-60 -101 -105 -93 -99 8 6 43 31 77 57 63 48 85 58 62 29 -23 -28 -130 -103
-147 -103 -8 0 -92 -75 -186 -168 -189 -185 -618 -582 -920 -851 l-29 -26 19
34 c61 107 443 513 564 599 104 74 154 120 258 237 53 60 137 153 185 207 88
97 184 176 242 196 36 12 75 15 75 5z m2 -90 c1 -12 -1 -23 -6 -25 -14 -5 -30
28 -22 47 8 22 23 10 28 -22z m-1163 -74 c100 -21 140 -96 89 -166 -22 -28
-81 -83 -90 -83 -3 0 -15 23 -28 50 -13 28 -29 50 -36 50 -23 0 -74 69 -74
101 0 24 6 33 33 44 39 17 44 18 106 4z m2131 1 c0 -16 -36 -47 -77 -68 -68
-34 -175 -64 -186 -53 -17 17 -10 22 142 103 53 27 121 38 121 18z m-444 -95
c12 -31 -9 -70 -73 -137 -37 -37 -88 -82 -115 -99 -42 -27 -54 -31 -91 -25
-92 15 -114 64 -53 121 39 37 121 92 191 129 55 30 132 36 141 11z m-1262 -6
c80 -37 50 -159 -70 -286 -27 -28 -56 -62 -65 -75 -10 -13 -20 -20 -23 -17 -4
4 -18 48 -31 99 l-25 92 26 51 c29 59 65 101 109 128 35 22 45 23 79 8z m181
-41 c14 -16 25 -37 25 -46 0 -58 -93 -167 -240 -280 -47 -36 -97 -77 -112 -91
-16 -13 -28 -22 -28 -18 0 4 41 61 91 127 107 141 186 269 195 315 7 40 32 38
69 -7z m1245 33 c0 -4 -9 -20 -21 -35 -15 -19 -30 -26 -56 -26 -42 0 -40 16 7
48 33 22 70 29 70 13z m262 -38 c31 -28 22 -60 -33 -118 l-51 -54 -42 29 -43
29 -12 -34 c-26 -72 -120 -127 -188 -111 -32 9 -93 68 -93 91 0 30 39 72 82
90 49 19 135 23 166 6 20 -11 21 -10 16 16 -6 33 16 58 62 73 40 13 114 3 136
-17z m-1171 -44 c50 -50 65 -169 33 -264 -23 -66 -95 -139 -154 -156 -25 -7
-59 -23 -75 -35 l-30 -23 -46 34 c-47 34 -79 85 -79 127 0 65 75 161 225 287
66 55 94 62 126 30z m-1006 -21 c34 -30 43 -88 22 -131 -9 -18 -24 -50 -33
-72 l-15 -40 -20 24 c-10 13 -19 29 -19 36 0 8 -22 21 -50 30 -46 15 -100 62
-100 86 0 70 155 118 215 67z m2560 -23 c0 -14 -17 -28 -62 -51 l-63 -31 32
-9 c98 -28 62 -146 -57 -188 -27 -10 -71 -27 -98 -39 -66 -29 -72 -20 -56 79
9 57 18 84 33 97 21 17 21 17 -9 11 -16 -3 -48 -11 -70 -16 -36 -9 -245 -19
-245 -12 0 4 59 30 235 106 148 63 202 77 300 74 53 -1 60 -3 60 -21z m-2332
-53 c66 -57 81 -202 33 -309 -40 -87 -55 -99 -107 -84 -23 7 -48 15 -56 18
-13 5 -13 2 -4 -15 19 -36 12 -77 -24 -150 -41 -81 -155 -210 -219 -246 -62
-36 -117 -49 -135 -32 -21 22 -7 70 54 187 30 57 76 146 102 197 l48 92 44 0
45 0 -29 29 c-38 41 -31 76 42 204 45 79 66 106 93 120 40 20 83 16 113 -11z
m1127 -42 c27 -27 25 -56 -6 -119 -31 -62 -83 -100 -146 -108 -24 -3 -54 -11
-68 -18 -86 -43 -160 -52 -160 -19 0 25 56 99 112 149 46 40 214 135 239 135
5 0 18 -9 29 -20z m374 -61 c24 -21 49 -52 56 -69 l12 -30 19 24 c42 53 146
61 182 13 l19 -24 25 23 c33 30 118 50 156 35 45 -17 37 -54 -26 -118 -30 -29
-60 -53 -67 -53 -7 0 -32 20 -55 43 l-42 44 -15 -27 c-9 -15 -41 -47 -72 -70
-63 -47 -71 -46 -101 17 l-17 36 -13 -29 c-16 -36 -58 -75 -110 -103 -68 -36
-80 -27 -94 74 -6 41 -18 80 -31 96 -24 34 -27 114 -5 146 31 44 112 31 179
-28z m-1881 -3 c79 -28 99 -73 72 -156 -9 -28 -21 -50 -27 -50 -6 0 -24 15
-42 34 -17 18 -52 41 -77 50 -50 19 -99 59 -99 80 0 19 25 37 63 46 47 12 68
11 110 -4z m1623 -128 c59 -41 87 -78 87 -117 0 -41 -27 -68 -83 -85 -26 -8
-56 -20 -67 -27 -36 -22 -53 -5 -53 54 0 41 -5 58 -20 72 -25 23 -27 90 -3
117 26 29 83 23 139 -14z m-1680 -33 c24 -14 51 -39 59 -55 18 -35 19 -87 2
-116 -26 -43 -73 -94 -88 -94 -8 0 -31 16 -50 36 -50 54 -109 94 -136 94 -20
0 -23 5 -23 40 0 118 117 165 236 95z m803 20 c36 -18 55 -64 48 -112 -10 -62
-65 -161 -123 -219 -49 -51 -56 -55 -86 -49 -52 11 -112 48 -126 77 -23 48 7
96 131 213 61 58 115 105 119 105 5 0 22 -7 37 -15z m1849 -33 c7 -51 -142
-298 -198 -327 -40 -21 -151 -19 -284 5 -60 11 -133 20 -162 20 -60 0 -74 13
-76 75 -4 96 101 144 361 166 103 9 144 17 169 32 97 57 184 71 190 29z
m-1195 -23 c34 -18 68 -52 78 -78 21 -54 -37 -133 -133 -182 -24 -12 -37 -24
-30 -26 18 -7 15 -18 -14 -52 -16 -19 -35 -31 -50 -31 -35 0 -42 28 -13 52
l24 20 -28 -6 c-99 -22 -115 -20 -148 15 -26 28 -31 30 -25 12 4 -12 2 -32 -5
-45 -18 -34 -118 -130 -131 -126 -18 6 -49 164 -38 193 18 47 74 58 128 25
l34 -21 -8 23 c-25 73 8 105 185 182 139 60 143 61 174 45z m-303 -44 c0 -16
-166 -145 -315 -245 -111 -75 -372 -242 -395 -254 -18 -9 -5 2 191 170 178
151 280 229 363 274 79 45 156 72 156 55z m720 -98 c43 -22 39 -68 -11 -122
-23 -25 -45 -45 -50 -45 -19 0 -109 97 -109 117 0 34 46 63 99 63 25 0 57 -6
71 -13z m-2036 -28 c56 -16 96 -58 96 -104 0 -36 -53 -155 -69 -155 -5 0 -28
23 -51 50 -23 28 -48 50 -55 50 -6 0 -33 19 -59 41 -37 33 -46 47 -44 68 6 50
94 74 182 50z m1855 -45 c24 -31 45 -90 37 -109 -6 -17 -50 -40 -92 -49 -76
-17 -89 87 -21 162 27 29 51 28 76 -4z m-219 -54 c-22 -31 -80 -68 -80 -51 0
12 91 93 98 87 2 -3 -6 -19 -18 -36z m-943 -31 c12 -4 27 -17 32 -28 29 -54
-5 -112 -95 -162 -29 -17 -56 -39 -59 -50 -10 -32 -41 -42 -74 -25 -34 18 -91
100 -91 131 0 29 32 68 85 105 68 47 131 56 202 29z m387 -15 c20 -19 20 -56
1 -121 -12 -40 -26 -60 -69 -97 -61 -51 -79 -52 -125 -2 -51 54 -16 148 76
207 52 32 93 37 117 13z m-1177 -24 c55 -25 86 -72 79 -123 -2 -21 -10 -44
-16 -52 -16 -20 -65 -19 -84 1 -9 9 -43 29 -77 46 -96 48 -114 98 -49 130 45
23 94 22 147 -2z m2477 5 c92 -16 165 -50 177 -83 7 -19 4 -24 -19 -33 -64
-25 -482 -20 -664 8 -61 9 -46 55 27 83 97 38 336 51 479 25z m-680 -5 c56
-21 16 -65 -92 -101 -37 -12 -80 -30 -97 -41 -41 -25 -45 -23 -45 21 0 41 25
82 63 103 49 26 129 35 171 18z m-281 -14 c17 -43 -54 -86 -84 -50 -12 14 -10
19 14 40 31 27 62 31 70 10z m-99 -53 c4 -9 2 -31 -5 -50 -10 -31 -14 -33 -54
-33 -78 0 -86 57 -12 90 43 20 62 18 71 -7z m416 -21 c0 -9 -75 -59 -163 -107
-37 -20 -67 -39 -67 -41 0 -2 30 8 68 22 114 44 175 64 179 60 3 -2 -42 -29
-99 -59 -387 -204 -590 -308 -594 -304 -6 5 229 156 329 211 37 21 67 39 67
41 0 2 -34 -12 -76 -32 -95 -43 -154 -64 -154 -55 0 16 290 188 385 229 100
43 125 50 125 35z m-322 -51 c7 -44 -7 -66 -61 -99 -29 -17 -58 -32 -65 -32
-20 0 -13 34 17 82 48 75 102 100 109 49z m-219 -15 c42 -67 21 -96 -71 -96
-49 -1 -51 -2 -33 -15 18 -14 18 -16 2 -32 -9 -9 -36 -19 -59 -22 -41 -6 -43
-8 -46 -42 -3 -34 -6 -38 -48 -49 -92 -26 -78 26 36 134 60 57 185 156 195
156 2 0 13 -15 24 -34z m-1360 -20 c18 -17 32 -43 35 -65 8 -47 -14 -135 -35
-139 -27 -5 -202 90 -218 119 -36 64 29 122 132 116 46 -3 62 -8 86 -31z m983
13 c26 -14 48 -68 48 -119 0 -47 -42 -101 -109 -138 l-40 -23 -40 36 c-65 59
-76 130 -29 191 45 56 120 80 170 53z m1601 -12 c46 -20 54 -39 32 -74 l-17
-26 -152 6 c-204 9 -396 41 -396 68 0 32 111 48 320 45 136 -2 183 -6 213 -19z
m-1989 -38 c60 -47 25 -91 -205 -257 -24 -18 -31 -12 -68 53 -34 61 -38 83
-17 123 35 67 101 101 197 102 52 0 72 -4 93 -21z m1401 11 c12 -20 -16 -81
-42 -91 -39 -14 -93 -11 -100 7 -15 40 120 120 142 84z m-1741 -6 c9 -3 16
-16 16 -28 0 -25 -55 -80 -206 -209 -56 -48 -112 -102 -124 -122 -12 -19 -24
-35 -26 -35 -11 0 175 348 204 383 15 17 101 24 136 11z m1562 -69 c10 -25
-33 -82 -67 -89 -84 -17 -102 3 -46 50 29 25 81 53 100 54 4 0 10 -7 13 -15z
m608 -11 c82 -16 130 -42 134 -73 4 -26 -10 -45 -61 -82 -44 -32 -57 -30 -107
15 -68 61 -78 67 -126 72 l-49 4 40 -17 c121 -53 169 -119 135 -183 -15 -28
-77 -62 -99 -55 -10 3 -36 31 -56 63 -25 40 -54 69 -96 95 -33 21 -67 50 -76
64 -16 24 -16 26 2 39 10 8 30 14 44 15 24 1 23 2 -6 10 -33 10 -50 26 -38 37
22 23 237 21 359 -4z m-1009 6 c8 -12 -123 -145 -151 -154 -10 -3 -25 -1 -33
3 -12 8 -19 -4 -35 -51 -17 -49 -28 -65 -57 -81 -20 -12 -43 -18 -53 -14 -15
6 -15 10 4 47 26 50 87 120 106 120 8 0 14 5 14 12 0 57 179 160 205 118z
m-665 -55 c97 -50 102 -175 11 -258 -48 -43 -130 -85 -184 -94 -24 -3 -49 -16
-61 -29 -15 -17 -37 -25 -76 -30 -51 -6 -54 -5 -39 10 8 9 37 25 65 35 l49 19
-55 6 c-30 3 -89 8 -130 11 -95 8 -110 12 -110 34 0 22 26 45 120 108 42 28
103 74 135 102 109 93 203 123 275 86z m-908 -17 c49 -14 88 -59 88 -101 0
-46 -36 -112 -83 -153 -44 -38 -130 -84 -158 -84 -9 0 -28 -9 -43 -21 -35 -27
-47 -17 -40 34 8 49 63 220 94 290 20 45 23 47 62 47 22 0 58 -5 80 -12z
m2131 -4 c44 -22 77 -54 77 -74 0 -9 -12 -28 -27 -43 -33 -30 -157 -97 -182
-97 -33 0 -101 89 -101 133 0 73 147 124 233 81z m-317 -9 c21 -53 -53 -118
-126 -113 -86 6 -74 58 25 104 58 27 93 30 101 9z m-1368 -48 c4 -49 -29 -106
-96 -169 -63 -60 -111 -80 -189 -82 -79 -1 -91 9 -67 60 48 101 234 239 314
232 33 -3 35 -5 38 -41z m786 -25 c2 -4 -5 -22 -16 -40 -18 -30 -23 -32 -57
-26 -45 8 -51 12 -51 29 0 30 108 62 124 37z m-3881 -22 c56 -12 118 -26 137
-32 41 -12 845 -544 876 -579 13 -15 24 -44 28 -74 l6 -50 -19 41 c-32 70
-195 195 -496 379 -342 210 -555 315 -640 315 -15 0 -24 4 -20 10 8 13 11 13
128 -10z m4943 -22 c48 -44 104 -118 104 -137 0 -6 -13 -11 -30 -11 -52 0
-115 73 -144 168 -12 36 19 27 70 -20z m-697 8 c7 -8 11 -32 9 -53 -3 -37 -4
-38 -47 -41 -24 -2 -48 1 -54 7 -17 17 2 61 36 81 38 24 41 24 56 6z m-4257
-27 c268 -104 883 -489 955 -599 l17 -25 -35 26 c-440 332 -918 605 -1051 601
-31 -1 -38 14 -10 21 24 6 69 -3 124 -24z m3741 10 c12 -6 32 -21 44 -32 21
-18 21 -22 7 -48 -8 -16 -26 -37 -41 -46 -25 -17 -26 -16 -49 11 -28 32 -32
87 -8 110 18 19 19 19 47 5z m816 -20 c70 -25 51 -85 -34 -109 -43 -12 -47
-11 -92 16 -64 40 -75 60 -44 85 27 22 117 26 170 8z m327 -59 c108 -54 130
-100 59 -123 -25 -9 -32 -6 -49 15 -23 27 -89 119 -94 131 -7 15 27 6 84 -23z
m-741 0 c8 -12 -11 -48 -43 -82 -20 -22 -35 -28 -66 -28 -82 0 -110 26 -68 63
46 42 161 73 177 47z m246 -19 c38 -38 37 -55 -6 -75 -19 -9 -35 -18 -35 -19
0 -1 22 -2 49 -3 52 0 101 -24 101 -49 0 -23 -71 -73 -122 -86 -46 -10 -51
-10 -73 11 -38 35 -41 71 -10 97 l26 23 -24 0 c-38 0 -51 22 -37 65 22 68 82
84 131 36z m-493 -13 c2 -8 -12 -37 -31 -64 l-33 -50 36 9 c85 23 121 -23 53
-67 -36 -23 -159 -66 -189 -66 -19 0 -3 32 34 73 l26 27 -42 0 c-35 0 -42 3
-42 20 0 25 63 86 120 116 49 25 63 26 68 2z m841 8 c14 -17 3 -45 -33 -84
-25 -28 -148 -102 -169 -102 -10 0 -17 16 -21 50 -4 28 -9 57 -12 64 -6 15 42
45 115 71 48 18 106 18 120 1z m-1055 -12 c11 -10 14 -24 10 -42 -10 -40 -11
-41 -47 -33 -75 17 -96 46 -55 75 29 20 72 20 92 0z m1146 -24 c22 -12 40 -61
33 -90 -8 -30 -54 -50 -118 -50 -64 0 -78 16 -54 59 15 26 93 91 110 91 6 0
19 -4 29 -10z m-595 -19 c8 -15 -52 -56 -124 -85 -64 -26 -131 -34 -131 -17 0
9 215 109 237 110 6 1 14 -3 18 -8z m2755 -10 c5 -11 10 -29 10 -40 0 -28 -63
-96 -119 -128 -25 -15 -59 -37 -74 -50 -33 -26 -63 -29 -111 -9 -61 25 -85 86
-47 120 10 9 42 19 72 23 42 4 62 13 89 38 48 44 88 64 132 65 27 0 40 -5 48
-19z m-3394 -27 c40 -42 41 -48 12 -68 -46 -32 -88 -6 -88 54 0 63 26 67 76
14z m-507 11 c154 -27 129 -41 -141 -80 -198 -28 -221 -29 -249 -14 -40 21 15
55 146 89 87 23 138 24 244 5z m-449 -24 c0 -10 12 -40 26 -67 75 -140 86
-166 82 -199 -3 -29 -2 -32 13 -24 49 26 134 -7 199 -77 46 -50 90 -135 90
-174 0 -131 -245 -101 -358 44 -28 37 -28 71 3 131 13 27 23 50 22 51 -1 0
-33 -3 -72 -7 -103 -12 -154 -2 -192 37 -27 26 -33 40 -33 75 0 86 73 181 164
213 54 19 56 19 56 -3z m1619 -62 c9 -17 12 -37 7 -62 l-7 -37 -63 0 c-78 0
-99 16 -75 58 19 34 77 74 103 70 11 -2 27 -15 35 -29z m-735 -1 c20 -28 21
-67 1 -74 -23 -9 -87 10 -99 29 -9 15 -6 23 17 43 35 30 61 31 81 2z m-1185
-15 c49 -36 63 -78 58 -173 -3 -47 -8 -92 -11 -101 -6 -13 3 -17 56 -22 115
-11 181 -53 218 -139 44 -102 15 -244 -67 -333 -25 -26 -29 -27 -95 -22 -150
13 -193 70 -233 311 -16 94 -34 169 -51 207 -29 64 -85 122 -140 145 -19 8
-34 17 -34 20 0 16 44 65 77 85 84 52 169 61 222 22z m991 7 c0 -7 -33 -23
-77 -35 -27 -8 -30 6 -5 27 27 25 82 30 82 8z m388 -2 c2 -9 -10 -31 -26 -49
-29 -33 -30 -33 -56 -16 -32 21 -33 51 -3 72 28 20 81 16 85 -7z m-562 -30
c17 -16 17 -19 -2 -39 -25 -28 -218 -119 -253 -119 -37 0 -111 39 -134 72 -19
26 -19 28 -3 53 31 47 66 55 228 53 124 -3 150 -6 164 -20z m258 -29 c43 -29
47 -35 44 -67 -4 -41 -29 -63 -55 -46 -24 14 -77 119 -69 133 11 18 30 13 80
-20z m680 -3 c50 -33 23 -61 -82 -86 -52 -12 -54 -12 -83 16 -36 34 -45 60
-28 81 18 21 156 14 193 -11z m-479 3 c4 -6 4 -26 1 -45 -6 -29 -11 -34 -35
-34 -19 0 -42 -14 -75 -46 -47 -44 -93 -70 -105 -58 -7 7 39 46 97 81 29 17
40 29 33 36 -14 14 3 43 37 61 33 18 39 19 47 5z m994 -5 c-7 -9 -38 -28 -68
-43 -52 -26 -68 -29 -218 -35 -183 -8 -206 0 -94 34 114 35 242 59 320 59 66
1 72 -1 60 -15z m1989 -26 c112 -68 74 -186 -101 -306 -56 -39 -165 -92 -189
-92 -38 0 -128 157 -128 222 0 74 63 119 240 174 109 34 124 34 178 2z m-4598
1 c0 -6 -37 -68 -81 -137 -45 -70 -95 -148 -111 -174 -16 -27 -34 -48 -38 -48
-5 0 -18 12 -29 26 -16 21 -21 41 -21 91 0 113 28 150 170 217 76 37 110 44
110 25z m1229 -30 c14 -40 4 -92 -35 -177 -40 -87 -70 -132 -90 -132 -35 0
-114 124 -114 180 0 18 15 40 48 71 105 102 169 121 191 58z m630 1 c49 -26
22 -52 -124 -121 -290 -136 -337 -160 -393 -198 -33 -22 -70 -54 -82 -71 -24
-34 -70 -42 -70 -13 0 9 48 64 108 122 107 106 216 192 334 264 61 38 65 39
135 34 39 -3 81 -10 92 -17z m-2272 -41 c60 -22 112 -100 113 -166 0 -72 -49
-169 -134 -261 -43 -46 -155 -139 -174 -144 -8 -2 -23 27 -37 70 -14 40 -48
117 -75 172 -28 55 -46 100 -41 100 6 0 13 -5 16 -10 11 -17 83 -50 110 -50
43 0 101 36 115 71 12 27 11 42 -4 101 -17 67 -17 70 1 90 32 36 65 44 110 27z
m531 -22 c77 -72 147 -359 109 -449 -8 -20 -27 -44 -41 -53 -28 -19 -139 -32
-179 -21 -37 9 -85 53 -108 97 -67 133 1 377 126 448 26 14 64 5 93 -22z
m1260 21 c7 -7 12 -23 12 -36 0 -22 -3 -24 -32 -18 -45 9 -65 30 -48 50 15 19
51 21 68 4z m1127 -8 c22 -8 25 -13 15 -25 -20 -24 -66 -27 -273 -15 -200 12
-260 23 -176 34 24 3 55 7 69 10 57 8 341 5 365 -4z m1610 -75 c91 -89 109
-185 54 -294 -53 -107 -159 -174 -328 -211 -104 -23 -138 -19 -153 19 -6 14
-29 63 -51 109 -53 107 -62 188 -25 242 45 67 123 103 323 150 66 16 123 29
127 29 3 1 27 -19 53 -44z m-2812 22 c20 -14 36 -87 19 -87 -14 0 -72 68 -72
85 0 18 30 19 53 2z m1100 -17 c20 -8 37 -18 37 -25 0 -29 -27 -35 -154 -36
l-131 -1 118 -21 c64 -12 117 -24 117 -28 0 -23 -155 -24 -337 -3 -224 26
-407 22 -509 -12 -15 -4 -13 -1 6 15 49 41 146 64 290 71 74 4 121 7 103 8
-54 3 -135 24 -126 32 16 16 61 18 303 15 166 -2 257 -7 283 -15z m-1143 -62
c28 -46 26 -60 -7 -56 -34 4 -54 48 -33 72 17 21 17 21 40 -16z m106 -5 c-10
-10 -19 5 -10 18 6 11 8 11 12 0 2 -7 1 -15 -2 -18z m-2176 -108 c77 -100 154
-272 175 -389 l6 -39 -41 6 c-99 13 -197 183 -236 409 -20 114 -14 132 27 92
17 -16 48 -51 69 -79z m2030 44 c7 -11 9 -23 6 -26 -7 -7 -24 5 -36 28 -8 15
-7 19 4 19 9 0 20 -9 26 -21z m899 -6 c223 -27 202 -37 -99 -48 -332 -12 -523
-45 -683 -117 -49 -22 -91 -38 -93 -35 -10 9 119 106 180 136 174 85 373 104
695 64z m-3081 -86 c18 -45 61 -131 97 -191 36 -60 64 -110 63 -112 -9 -9
-118 80 -145 118 -42 59 -69 157 -59 221 4 26 9 47 10 47 2 0 17 -37 34 -83z
m4509 -52 c70 -204 68 -271 -7 -339 -21 -19 -76 -53 -122 -75 -86 -42 -275
-107 -284 -99 -8 8 -24 223 -24 324 0 53 6 112 15 142 36 120 147 183 314 179
l64 -2 44 -130z m-2357 80 c0 -22 -49 -115 -60 -115 -14 0 -13 46 1 73 26 49
59 73 59 42z m946 -21 c28 -3 66 -14 85 -26 34 -21 34 -21 11 -31 -16 -7 -62
-7 -150 1 -70 7 -202 12 -294 12 -93 0 -168 4 -168 9 0 12 29 18 140 31 152
17 242 18 376 4z m835 -47 c78 -52 131 -240 111 -394 -20 -151 -65 -203 -189
-222 -188 -29 -275 -24 -287 17 -29 100 -34 295 -10 387 30 116 82 175 169
191 22 4 56 15 75 25 46 25 90 24 131 -4z m-1386 -31 c18 -13 17 -14 -6 -29
-35 -23 -144 -49 -174 -41 -14 3 -25 12 -25 20 0 18 33 47 63 56 40 11 123 8
142 -6z m548 -2 c23 -7 22 -31 -3 -44 -29 -16 -150 16 -150 40 0 18 95 20 153
4z m-229 -3 c23 -9 31 -5 -119 -58 -148 -52 -365 -61 -272 -12 12 7 63 27 112
45 76 28 104 33 175 33 47 0 94 -4 104 -8z m527 -24 c19 -12 44 -41 56 -62 26
-49 46 -186 38 -263 -18 -177 -29 -243 -41 -253 -8 -7 -42 -11 -82 -9 -91 3
-89 3 -159 -5 -77 -10 -93 1 -93 58 0 22 19 97 41 166 51 156 60 239 30 296
-24 45 -23 46 59 77 63 24 111 22 151 -5z m-2569 -37 c5 -19 20 -45 34 -56 15
-13 24 -29 22 -40 -7 -40 -209 -113 -373 -135 -143 -19 -169 3 -92 75 51 49
162 113 278 161 102 42 120 42 131 -5z m1074 -15 c96 -22 205 -67 346 -143
l126 -69 109 18 c178 30 177 26 -14 -46 -76 -28 -182 -75 -235 -104 -97 -52
-98 -53 -98 -28 0 61 -54 147 -115 183 -58 33 -114 32 -156 -3 -32 -27 -79
-113 -79 -145 0 -23 -55 -24 -105 -4 -98 41 -96 169 5 327 l30 46 61 -9 c33
-4 89 -15 125 -23z m1109 20 c0 -5 -24 -22 -54 -37 -50 -26 -64 -28 -168 -28
-62 0 -113 4 -113 9 0 13 57 31 160 52 90 19 175 21 175 4z m-575 -59 c139
-29 252 -66 258 -85 4 -10 -6 -12 -45 -6 -31 4 -80 1 -131 -9 -45 -9 -96 -13
-114 -9 -69 12 -189 97 -173 122 10 17 81 13 205 -13z m700 -36 c10 -5 24 -26
30 -45 13 -41 5 -93 -37 -220 -51 -159 -76 -155 -193 35 -33 54 -73 111 -89
126 l-30 28 32 14 c149 65 243 86 287 62z m-1802 -109 c156 -51 285 -126 322
-187 24 -37 26 -87 5 -104 -23 -19 -58 -5 -145 63 -44 34 -109 83 -143 110
-34 26 -99 66 -144 89 -46 23 -83 45 -83 50 0 18 103 6 188 -21z m-158 -31
c31 -44 70 -166 77 -242 5 -62 4 -68 -21 -93 -15 -14 -32 -25 -39 -22 -15 5
-87 217 -93 277 -4 34 0 53 15 78 25 40 34 40 61 2z m871 -19 c16 -16 29 -40
29 -53 0 -13 7 -55 15 -94 20 -97 0 -164 -48 -164 -33 0 -106 49 -137 92 -25
34 -30 51 -30 100 0 65 19 120 47 137 10 6 35 11 56 11 29 0 45 -7 68 -29z
m719 10 c0 -24 -92 -79 -326 -195 -139 -69 -262 -126 -273 -126 -32 0 -51 11
-51 29 0 63 324 246 505 286 71 16 145 19 145 6z m127 -96 c55 -84 244 -297
438 -491 l210 -212 115 -56 c63 -30 153 -66 200 -80 97 -29 85 -33 -27 -10
-94 19 -167 48 -212 82 -19 14 -55 36 -81 49 -125 62 -568 474 -658 612 -52
79 -57 134 -12 140 3 0 15 -15 27 -34z m-142 -38 c14 -11 17 -22 12 -45 -8
-41 -86 -172 -102 -172 -7 0 -28 6 -46 14 -27 11 -51 12 -119 4 -91 -10 -140
-1 -140 26 0 37 167 142 271 170 69 19 101 19 124 3z m89 -42 c13 -14 56 -115
56 -134 0 -12 -48 -31 -81 -31 -55 0 -74 93 -33 158 17 26 36 28 58 7z m-1604
-197 c-1 -22 -18 -38 -230 -214 -297 -248 -336 -286 -371 -359 -34 -73 -87
-145 -123 -169 -41 -26 -33 0 24 78 27 37 52 83 56 102 5 27 22 47 83 97 42
35 154 135 250 223 95 87 198 180 228 207 54 46 83 59 83 35z"/>
<path d="M5905 4575 c-22 -13 -33 -24 -25 -24 8 0 29 11 45 24 38 32 31 32
-20 0z"/>
<path d="M6898 4573 c7 -3 16 -2 19 1 4 3 -2 6 -13 5 -11 0 -14 -3 -6 -6z"/>
<path d="M4858 4403 c7 -3 16 -2 19 1 4 3 -2 6 -13 5 -11 0 -14 -3 -6 -6z"/>
</g>
</svg>
